<?xml version="1.0" standalone="no"?>
<!DOCTYPE svg PUBLIC "-//W3C//DTD SVG 20010904//EN"
 "http://www.w3.org/TR/2001/REC-SVG-20010904/DTD/svg10.dtd">
<svg version="1.0" xmlns="http://www.w3.org/2000/svg"
 width="474.000000pt" height="356.000000pt" viewBox="0 0 474.000000 356.000000"
 preserveAspectRatio="xMidYMid meet">
<metadata>
Created by potrace 1.15, written by Peter Selinger 2001-2017
</metadata>
<g transform="translate(0.000000,356.000000) scale(0.100000,-0.100000)"
fill="#000000" stroke="none">
<path d="M1324 3065 c-45 -27 -67 -67 -63 -112 2 -18 -5 -39 -17 -56 -40 -50
-48 -83 -32 -125 18 -48 71 -78 151 -85 99 -9 194 -63 305 -175 50 -51 92 -96
91 -100 -1 -4 -22 -26 -49 -50 l-47 -42 -91 29 c-187 62 -338 166 -497 344
-85 95 -135 127 -198 127 -87 0 -131 -41 -130 -121 0 -32 -7 -64 -23 -95 -31
-61 -30 -95 1 -133 38 -44 102 -65 159 -53 80 17 145 -6 285 -101 76 -51 196
-163 245 -229 l28 -37 -39 -61 c-21 -33 -56 -90 -78 -126 -37 -61 -44 -68
-101 -89 -165 -62 -305 -196 -339 -326 -80 -298 204 -570 715 -688 255 -58
501 -84 830 -86 305 -2 441 6 680 41 387 56 652 166 820 338 71 72 106 134
125 220 40 176 -46 329 -260 458 l-54 33 -1 61 c0 114 -67 199 -206 260 -32
14 -100 48 -150 76 -78 43 -95 57 -121 101 -42 71 -79 168 -110 290 -15 56
-28 104 -30 106 -2 3 -17 -9 -34 -25 -40 -37 -83 -123 -99 -196 -13 -58 -18
-65 -35 -49 -20 17 -190 82 -264 100 -131 33 -212 42 -387 44 l-169 2 -132 61
c-160 74 -318 171 -390 239 -32 30 -70 82 -96 130 -45 82 -90 125 -131 125
-12 0 -40 -11 -62 -25z m104 -47 c11 -13 34 -51 51 -85 17 -34 55 -86 84 -116
50 -51 166 -135 235 -171 33 -17 43 -36 18 -36 -17 0 -26 -22 -26 -60 0 -20
-6 -31 -20 -35 -16 -5 -35 6 -79 48 -120 111 -248 177 -341 177 -38 0 -74 20
-90 50 -12 23 9 73 39 92 16 10 18 20 14 64 -6 51 -5 53 28 73 43 27 61 26 87
-1z m-489 -263 c16 -8 57 -47 91 -87 103 -121 249 -241 373 -306 l58 -31 -31
-16 c-26 -14 -30 -21 -30 -59 0 -23 -3 -45 -6 -49 -4 -3 -43 25 -87 64 -96 83
-189 145 -273 182 -68 30 -93 32 -156 16 -79 -20 -141 28 -119 93 6 18 21 42
32 54 18 20 20 27 10 57 -20 59 8 96 72 97 21 0 51 -7 66 -15z m1038 -202 l62
-27 -82 -24 c-45 -13 -97 -32 -116 -43 -31 -18 -36 -19 -50 -5 -10 11 -11 16
-3 16 22 0 52 40 52 69 0 49 46 54 137 14z m1144 -78 c11 -42 33 -106 49 -141
16 -35 27 -64 25 -64 -3 0 -37 18 -77 39 l-73 40 0 54 c0 36 8 72 24 106 14
28 26 49 28 48 2 -2 12 -39 24 -82z m-643 -6 c187 -20 304 -57 522 -166 91
-45 203 -104 250 -131 47 -27 120 -67 162 -89 42 -22 74 -44 70 -48 -4 -5 -2
-5 5 -1 7 4 40 -7 73 -24 90 -45 143 -139 125 -222 l-7 -30 -34 51 c-35 52
-70 79 -189 149 -38 22 -80 49 -91 61 -12 11 -24 18 -26 15 -3 -2 -28 18 -55
46 l-50 50 -24 -20 -24 -20 54 -50 c62 -59 148 -119 213 -150 103 -48 178
-146 178 -235 0 -46 -43 -143 -88 -195 l-29 -34 -47 41 c-26 23 -124 94 -219
159 -199 135 -270 194 -334 275 -40 52 -50 59 -81 59 l-35 0 5 -107 c6 -110
35 -229 79 -315 l19 -37 -37 -10 c-21 -6 -60 -17 -88 -25 -27 -9 -51 -14 -53
-12 -2 2 4 19 14 38 24 46 44 125 44 174 0 159 -152 372 -337 471 -106 56
-195 79 -510 133 -106 19 -193 36 -193 40 0 4 11 17 25 30 14 13 25 18 25 11
0 -6 -7 -14 -15 -17 -27 -11 -16 -22 30 -29 40 -6 48 -4 64 17 23 27 13 37
-39 38 -34 1 -34 1 -15 16 11 9 29 20 40 25 19 10 19 9 2 -4 -17 -14 -15 -16
22 -22 22 -4 45 -4 51 0 6 4 19 1 28 -6 14 -11 15 -11 5 1 -9 9 -9 17 -2 26
12 14 -31 28 -64 20 -14 -4 -11 -1 6 7 21 10 38 11 66 4 30 -8 48 -6 96 11 53
18 56 21 30 23 -44 4 85 15 193 17 51 1 136 -3 190 -9z m-901 -180 c47 -18
278 -66 448 -94 313 -51 470 -128 591 -288 26 -34 60 -91 77 -127 26 -57 29
-73 25 -135 -4 -50 -13 -86 -33 -125 -45 -90 -62 -108 -146 -151 -93 -48 -196
-143 -223 -205 -17 -40 -20 -41 -84 -53 -88 -15 -333 -15 -414 -1 -103 20
-280 73 -358 109 l-45 21 40 -6 40 -6 -39 40 c-33 34 -45 41 -87 44 -27 1 -50
-1 -52 -6 -2 -5 -14 5 -27 23 -22 32 -22 33 -2 22 21 -11 102 -16 102 -6 0 4
-7 19 -15 35 -13 24 -22 30 -49 30 -19 0 -42 3 -52 7 -14 5 -16 2 -11 -23 l6
-29 -14 30 c-8 17 -14 50 -13 75 1 36 2 38 5 13 4 -33 5 -33 59 -33 l55 0 -3
33 c-3 32 -4 32 -60 35 -51 3 -58 5 -58 24 0 20 4 20 64 14 60 -6 64 -5 70 16
12 45 8 48 -48 48 -34 0 -57 -5 -60 -12 -3 -7 -3 -2 0 12 3 14 29 70 58 124
l52 100 61 -2 c55 -1 61 1 72 24 17 37 15 40 -29 42 -33 2 -45 -2 -67 -25
l-27 -28 24 40 c13 22 29 47 37 55 12 13 13 13 7 -2 -5 -15 0 -18 28 -18 39 0
33 8 100 -144 68 -156 80 -179 120 -243 47 -74 122 -145 193 -180 69 -36 202
-42 295 -15 64 18 79 33 61 60 -7 11 -17 11 -61 -2 -30 -9 -66 -16 -82 -16
l-29 0 26 37 c14 21 25 43 25 49 0 17 -63 41 -67 27 -3 -7 -17 -30 -34 -52
-16 -23 -29 -45 -29 -51 0 -5 -10 -8 -22 -6 -13 3 -27 5 -32 5 -5 1 0 11 11
24 11 12 30 39 43 61 l23 39 -24 18 c-13 10 -29 19 -34 19 -6 0 -25 -25 -44
-55 -28 -48 -31 -58 -19 -72 30 -37 -32 8 -82 59 -48 49 -123 163 -135 205 -3
10 -1 9 6 -4 7 -13 15 -23 18 -23 3 1 16 20 27 44 l22 43 -23 29 -22 28 -17
-31 c-9 -18 -16 -40 -16 -50 0 -10 -35 52 -78 137 -42 85 -93 177 -112 204
-19 26 -41 57 -49 67 -12 17 -11 22 4 39 13 14 16 28 11 52 -5 29 -2 36 21 50
33 20 61 22 100 7z m1362 -504 c68 -65 145 -124 321 -244 279 -191 356 -317
283 -462 -42 -81 -74 -90 -312 -88 -209 1 -393 -1 -401 -6 -3 -1 -52 -7 -110
-11 -117 -9 -240 -7 -272 5 -19 7 -18 10 21 40 l42 33 -22 19 c-29 25 -41 24
-66 -3 -33 -38 -36 -48 -17 -63 11 -8 14 -15 7 -15 -6 0 -21 12 -33 28 -17 21
-21 37 -18 72 13 135 207 263 521 345 l48 12 39 -52 c45 -61 117 -127 178
-163 46 -26 61 -21 62 21 0 9 3 16 8 15 10 -3 62 32 62 43 0 5 -11 16 -25 25
-23 15 -26 15 -55 -6 -30 -22 -31 -23 -13 -43 15 -17 13 -17 -15 3 l-32 24 30
31 30 31 -25 24 -25 24 -28 -27 c-35 -34 -43 -34 -73 0 -17 20 -18 23 -3 11
20 -17 21 -17 49 12 28 29 28 30 10 50 -25 28 -42 25 -63 -10 l-19 -30 -20 23
c-31 35 -66 97 -54 97 6 0 11 5 11 12 0 6 7 20 16 29 15 17 15 20 0 44 -21 32
-33 32 -48 0 -10 -22 -13 -24 -21 -10 -6 12 -3 23 13 40 l21 23 -21 50 c-12
28 -19 56 -14 63 4 8 3 10 -5 5 -7 -4 -15 2 -20 16 -9 20 -10 18 -10 -16 -1
-53 -7 -43 -15 24 -6 53 -5 54 11 32 9 -13 42 -48 72 -77z m-1705 -82 c-41
-95 -56 -161 -52 -233 11 -179 101 -263 383 -355 260 -84 483 -103 703 -59 25
5 30 2 36 -20 11 -46 64 -95 119 -111 59 -18 215 -20 350 -5 51 6 225 12 387
13 248 2 301 5 330 19 95 44 134 106 133 216 0 62 -5 82 -35 143 -19 38 -31
72 -26 75 4 3 25 31 47 62 43 64 81 158 81 200 0 16 6 37 14 47 13 18 16 18
72 -16 79 -47 180 -147 205 -203 27 -62 34 -133 19 -197 -18 -77 -35 -105
-104 -178 -183 -190 -432 -280 -986 -353 -148 -19 -708 -15 -895 6 -587 69
-914 211 -1050 457 -27 48 -30 63 -30 139 0 74 4 92 29 140 36 70 124 156 201
197 69 37 80 40 69 16z"/>
</g>
</svg>
